<svg width="214" height="264" viewBox="0 0 214 264" fill="none" xmlns="http://www.w3.org/2000/svg">
<path d="M131.78 0.0900002L213.45 0L76.4298 136.95L40.7198 172.46L0.0898438 131.78L131.78 0.0900002ZM131.02 122.37C132.08 120.97 134.03 121.66 135.51 121.48L213.38 121.5L142.41 192.4L101.57 151.81L131.02 122.37Z" fill="#44D1FD"/>
<path d="M60.8599 192.47L101.57 151.81L142.41 192.4L142.58 192.58L101.58 233.2L60.8599 192.47Z" fill="#1FBCFD"/>
<path d="M101.58 233.2L142.58 192.58L213.41 263.48C186.73 263.54 160.06 263.46 133.39 263.52C131.87 263.86 130.93 262.47 129.96 261.61L101.58 233.2Z" fill="#08589C"/>
</svg>
