<svg width="115" height="114" viewBox="0 0 115 114" fill="none" xmlns="http://www.w3.org/2000/svg">
<path d="M112.28 51.977L62.5349 2.23808C59.6727 -0.626722 55.0267 -0.626722 52.1609 2.23808L41.8319 12.5681L54.9339 25.6701C57.9798 24.6417 61.471 25.3312 63.8978 27.7585C66.3372 30.2009 67.0218 33.7219 65.9676 36.778L78.5956 49.406C81.6507 48.3532 85.1756 49.0334 87.6151 51.4772C91.0257 54.8868 91.0257 60.4117 87.6151 63.8222C84.204 67.2338 78.6791 67.2338 75.2661 63.8222C72.7016 61.2557 72.0673 57.4877 73.3662 54.328L61.5892 42.551L61.5882 73.542C62.4197 73.9536 63.2044 74.503 63.8973 75.1929C67.3069 78.6021 67.3069 84.126 63.8973 87.5409C60.4867 90.95 54.9593 90.95 51.5523 87.5409C48.1422 84.1263 48.1422 78.6024 51.5523 75.1929C52.395 74.3516 53.3702 73.7149 54.4107 73.2881V42.0091C53.3697 41.5841 52.3957 40.9521 51.5517 40.1041C48.9687 37.5231 48.3466 33.7321 49.6713 30.5602L36.7553 17.6422L2.64928 51.7472C-0.216425 54.6142 -0.216425 59.2602 2.64928 62.1252L52.3913 111.864C55.2551 114.729 59.8995 114.729 62.7673 111.864L112.279 62.3602C115.144 59.494 115.144 54.8466 112.279 51.9812" fill="#F05133"/>
</svg>
