<svg width="20" height="16" viewBox="0 0 20 16" fill="none" xmlns="http://www.w3.org/2000/svg">
<path d="M13.1798 9.30895C12.4618 9.30895 11.8798 10.116 11.8798 11.108C11.8798 12.102 12.4618 12.909 13.1798 12.909C13.8978 12.909 14.4798 12.102 14.4798 11.108C14.4788 10.116 13.8978 9.30895 13.1798 9.30895ZM17.7058 4.62595C17.8548 4.26095 17.8608 2.18695 17.0708 0.199951C17.0708 0.199951 15.2598 0.398951 12.5198 2.27995C11.9448 2.11995 10.9718 2.04195 10.0008 2.04195C9.02781 2.04195 8.0558 2.11995 7.4808 2.27995C4.7398 0.398951 2.9288 0.199951 2.9288 0.199951C2.1398 2.18695 2.1478 4.26095 2.2948 4.62595C1.3668 5.63395 0.799805 6.84495 0.799805 8.49695C0.799805 15.683 6.7628 15.798 8.2668 15.798L10.0008 15.8L11.7328 15.798C13.2388 15.798 19.1998 15.683 19.1998 8.49695C19.1998 6.84495 18.6338 5.63395 17.7058 4.62595ZM10.0278 14.915H9.9718C6.2008 14.915 3.2628 14.466 3.2628 10.8C3.2628 9.92095 3.5728 9.10695 4.3098 8.43095C5.5368 7.30395 7.6148 7.89995 9.9718 7.89995H10.0278C12.3848 7.89995 14.4638 7.30395 15.6918 8.43095C16.4268 9.10695 16.7368 9.92095 16.7368 10.8C16.7368 14.466 13.7998 14.915 10.0278 14.915ZM6.8208 9.30895C6.1028 9.30895 5.5208 10.116 5.5208 11.108C5.5208 12.102 6.1028 12.909 6.8208 12.909C7.5388 12.909 8.1218 12.102 8.1218 11.108C8.1218 10.116 7.5398 9.30895 6.8208 9.30895Z" fill="white"/>
</svg>
