<svg width="156" height="150" viewBox="0 0 156 150" fill="none" xmlns="http://www.w3.org/2000/svg">
<path d="M153.169 59.3736L152.959 58.8136L131.759 3.51361C131.33 2.42778 130.567 1.50667 129.579 0.883607C128.842 0.411976 128.005 0.119506 127.135 0.0296335C126.265 -0.060239 125.386 0.0549898 124.568 0.366082C123.751 0.677175 123.018 1.17548 122.427 1.82105C121.837 2.46663 121.406 3.24152 121.169 4.08361L106.859 47.8936H48.9091L34.5991 4.08361C34.3604 3.24278 33.9286 2.46934 33.338 1.82501C32.7474 1.18067 32.0144 0.683245 31.1974 0.372407C30.3805 0.0615685 29.5023 -0.0540863 28.6327 0.0346689C27.7632 0.123424 26.9264 0.41413 26.1891 0.883607C25.2017 1.50667 24.4382 2.42778 24.0091 3.51361L2.81913 58.8236L2.59913 59.3736C-0.451612 67.3467 -0.827451 76.0955 1.52827 84.3008C3.88398 92.5061 8.84355 99.7231 15.6591 104.864L15.7391 104.924L15.9191 105.064L48.1691 129.234L64.1691 141.324L73.8891 148.674C75.0296 149.535 76.4199 150.001 77.8491 150.001C79.2784 150.001 80.6687 149.535 81.8091 148.674L91.5291 141.324L107.529 129.234L140.009 104.924L140.099 104.854C146.914 99.7151 151.875 92.5004 154.232 84.2971C156.589 76.0938 156.216 67.3464 153.169 59.3736Z" fill="#E24329"/>
<path d="M153.169 59.3735L152.959 58.8135C142.63 60.933 132.898 65.3109 124.459 71.6335L77.9092 106.833L107.549 129.233L140.029 104.923L140.119 104.853C146.931 99.7123 151.887 92.4964 154.241 84.2933C156.595 76.0902 156.219 67.3442 153.169 59.3735Z" fill="#FC6D26"/>
<path d="M48.1689 129.234L64.1689 141.324L73.8889 148.674C75.0294 149.535 76.4197 150.001 77.8489 150.001C79.2782 150.001 80.6685 149.535 81.8089 148.674L91.5289 141.324L107.529 129.234L77.8889 106.834L48.1689 129.234Z" fill="#FCA326"/>
<path d="M31.3091 71.6337C22.8737 65.3144 13.1445 60.9398 2.81913 58.8237L2.59913 59.3737C-0.451612 67.3468 -0.827451 76.0956 1.52827 84.3009C3.88398 92.5062 8.84355 99.7232 15.6591 104.864L15.7391 104.924L15.9191 105.064L48.1691 129.234L77.8291 106.834L31.3091 71.6337Z" fill="#FC6D26"/>
</svg>
