<svg width="126" height="144" viewBox="0 0 126 144" fill="none" xmlns="http://www.w3.org/2000/svg">
<mask id="mask0_415_72" style="mask-type:luminance" maskUnits="userSpaceOnUse" x="0" y="0" width="126" height="144">
<path d="M59.5679 0.906655L3.39465 33.3293C1.29065 34.5426 0 36.7826 0 39.2039V104.094C0 106.517 1.29065 108.756 3.39465 109.969L59.5719 142.417C61.6719 143.626 64.2612 143.626 66.3585 142.417L122.526 109.969C124.62 108.756 125.913 106.516 125.913 104.094V39.2039C125.913 36.7826 124.62 34.5426 122.513 33.3293L66.3532 0.906655C65.2999 0.302656 64.1265 0 62.9532 0C61.7799 0 60.6065 0.302656 59.5532 0.906655" fill="white"/>
</mask>
<g mask="url(#mask0_415_72)">
<path d="M182.679 27.8238L24.3923 -49.7627L-56.7676 115.802L101.515 193.393L182.679 27.8238Z" fill="url(#paint0_linear_415_72)"/>
</g>
<mask id="mask1_415_72" style="mask-type:luminance" maskUnits="userSpaceOnUse" x="1" y="0" width="124" height="144">
<path d="M1.3916 108.214C1.92893 108.912 2.60093 109.516 3.3916 109.969L51.5782 137.802L59.6048 142.416C60.8048 143.109 62.1728 143.402 63.5168 143.302C63.9648 143.266 64.4128 143.182 64.8502 143.058L124.095 34.5785C123.642 34.0852 123.111 33.6718 122.517 33.3252L85.7355 12.0852L66.2928 0.898558C65.7408 0.578559 65.1422 0.351894 64.5328 0.191895L1.3916 108.214Z" fill="white"/>
</mask>
<g mask="url(#mask1_415_72)">
<path d="M-67.0459 50.7717L44.7206 202.042L192.534 92.8343L80.7605 -58.4321L-67.0459 50.7717Z" fill="url(#paint1_linear_415_72)"/>
</g>
<mask id="mask2_415_72" style="mask-type:luminance" maskUnits="userSpaceOnUse" x="3" y="0" width="123" height="144">
<path d="M62.2822 0.0370483C61.3396 0.130381 60.4182 0.423705 59.5689 0.90637L3.55566 33.2357L63.9556 143.249C64.7956 143.129 65.6222 142.849 66.3689 142.417L122.542 109.969C124.275 108.964 125.462 107.262 125.822 105.334L64.2489 0.147705C63.7956 0.0583717 63.3422 0.0117188 62.8756 0.0117188C62.6889 0.0117188 62.5022 0.0210374 62.3156 0.0383707" fill="white"/>
</mask>
<g mask="url(#mask2_415_72)">
<path d="M3.55469 0.0117188V143.251H125.798V0.0117188H3.55469Z" fill="url(#paint2_linear_415_72)"/>
</g>
<mask id="mask3_415_72" style="mask-type:luminance" maskUnits="userSpaceOnUse" x="3" y="0" width="123" height="144">
<path d="M62.2822 0.0370483C61.3396 0.130381 60.4182 0.423705 59.5689 0.90637L3.55566 33.2357L63.9556 143.249C64.7956 143.129 65.6222 142.849 66.3689 142.417L122.542 109.969C124.275 108.964 125.462 107.262 125.822 105.334L64.2489 0.147705C63.7956 0.0583717 63.3422 0.0117188 62.8756 0.0117188C62.6889 0.0117188 62.5022 0.0210374 62.3156 0.0383707" fill="white"/>
</mask>
<g mask="url(#mask3_415_72)">
<path d="M3.55469 0.0117188V143.251H125.798V0.0117188H3.55469Z" fill="url(#paint3_linear_415_72)"/>
</g>
<defs>
<linearGradient id="paint0_linear_415_72" x1="103.488" y1="-11.0914" x2="22.3337" y2="154.463" gradientUnits="userSpaceOnUse">
<stop offset="0.3" stop-color="#3E863D"/>
<stop offset="0.5" stop-color="#55934F"/>
<stop offset="0.8" stop-color="#5AAD45"/>
</linearGradient>
<linearGradient id="paint1_linear_415_72" x1="-10.4929" y1="127.274" x2="137.326" y2="18.0534" gradientUnits="userSpaceOnUse">
<stop offset="0.57" stop-color="#3E863D"/>
<stop offset="0.72" stop-color="#619857"/>
<stop offset="1" stop-color="#76AC64"/>
</linearGradient>
<linearGradient id="paint2_linear_415_72" x1="3.59593" y1="71.6356" x2="125.822" y2="71.6356" gradientUnits="userSpaceOnUse">
<stop offset="0.16" stop-color="#6BBF47"/>
<stop offset="0.38" stop-color="#79B461"/>
<stop offset="0.47" stop-color="#75AC64"/>
<stop offset="0.7" stop-color="#659E5A"/>
<stop offset="0.9" stop-color="#3E863D"/>
</linearGradient>
<linearGradient id="paint3_linear_415_72" x1="3.59593" y1="71.6356" x2="125.822" y2="71.6356" gradientUnits="userSpaceOnUse">
<stop offset="0.16" stop-color="#6BBF47"/>
<stop offset="0.38" stop-color="#79B461"/>
<stop offset="0.47" stop-color="#75AC64"/>
<stop offset="0.7" stop-color="#659E5A"/>
<stop offset="0.9" stop-color="#3E863D"/>
</linearGradient>
</defs>
</svg>
