<svg width="112" height="113" viewBox="0 0 112 113" fill="none" xmlns="http://www.w3.org/2000/svg">
<path d="M55.4188 0.500919C50.8351 0.522217 46.4578 0.913137 42.6063 1.59467C31.2601 3.59917 29.2 7.79477 29.2 15.5322V25.7509H56.0125V29.1572H29.2H19.1375C11.3451 29.1572 4.52178 33.8409 2.38754 42.7509C-0.0742847 52.9639 -0.18348 59.3369 2.38754 70.0009C4.29346 77.9388 8.84508 83.5947 16.6375 83.5947H25.8563V71.3447C25.8563 62.4948 33.5134 54.6884 42.6063 54.6884H69.3875C76.8425 54.6884 82.7938 48.5503 82.7938 41.0634V15.5322C82.7938 8.26583 76.6638 2.80739 69.3875 1.59467C64.7815 0.827944 60.0024 0.479621 55.4188 0.500919ZM40.9188 8.71967C43.6883 8.71967 45.95 11.0183 45.95 13.8447C45.95 16.661 43.6883 18.9384 40.9188 18.9384C38.1393 18.9384 35.8875 16.661 35.8875 13.8447C35.8875 11.0183 38.1393 8.71967 40.9188 8.71967Z" fill="url(#paint0_linear_538_381)"/>
<path d="M86.1377 29.1572V41.0635C86.1377 50.2942 78.3118 58.0635 69.3877 58.0635H42.6064C35.2706 58.0635 29.2002 64.342 29.2002 71.6885V97.2197C29.2002 104.486 35.5188 108.76 42.6064 110.845C51.0938 113.34 59.2327 113.791 69.3877 110.845C76.1379 108.89 82.7939 104.957 82.7939 97.2197V87.001H56.0127V83.5947H82.7939H96.2002C103.993 83.5947 106.896 78.1593 109.606 70.001C112.406 61.6021 112.287 53.5252 109.606 42.751C107.681 34.9935 104.003 29.1572 96.2002 29.1572H86.1377ZM71.0752 93.8135C73.8547 93.8135 76.1064 96.0909 76.1064 98.9072C76.1064 101.734 73.8547 104.032 71.0752 104.032C68.3056 104.032 66.0439 101.734 66.0439 98.9072C66.0439 96.0909 68.3056 93.8135 71.0752 93.8135Z" fill="url(#paint1_linear_538_381)"/>
<defs>
<linearGradient id="paint0_linear_538_381" x1="0.5" y1="0.5" x2="62.3267" y2="53.1849" gradientUnits="userSpaceOnUse">
<stop stop-color="#5A9FD4"/>
<stop offset="1" stop-color="#306998"/>
</linearGradient>
<linearGradient id="paint1_linear_538_381" x1="70.4309" y1="98.0481" x2="48.2498" y2="66.9658" gradientUnits="userSpaceOnUse">
<stop stop-color="#FFD43B"/>
<stop offset="1" stop-color="#FFE873"/>
</linearGradient>
</defs>
</svg>
