<svg width="119" height="106" viewBox="0 0 119 106" fill="none" xmlns="http://www.w3.org/2000/svg">
<path d="M59.5 63.459C65.368 63.459 70.125 58.702 70.125 52.834C70.125 46.966 65.368 42.209 59.5 42.209C53.632 42.209 48.875 46.966 48.875 52.834C48.875 58.702 53.632 63.459 59.5 63.459Z" fill="#00D8FF"/>
<path d="M59.5 77.1949C46.7294 77.5027 33.9909 75.7813 21.76 72.0949C16.1101 70.3039 10.8406 67.4826 6.21775 63.7734C4.4531 62.5069 2.98361 60.8733 1.91029 58.9849C0.836968 57.0965 0.185274 54.9981 0 52.8339C0 45.8087 7.718 38.9237 20.6465 34.4187C33.2049 30.4301 46.3249 28.4956 59.5 28.6897C72.4994 28.5099 85.4439 30.4096 97.8435 34.3167C103.284 36.0533 108.374 38.7381 112.88 42.2472C114.612 43.4571 116.058 45.0321 117.115 46.8613C118.172 48.6904 118.816 50.7292 119 52.8339C119 60.1354 110.373 67.5347 96.475 72.1332C84.4812 75.7005 72.0113 77.4076 59.5 77.1949ZM59.5 33.7727C46.8952 33.6079 34.3443 35.447 22.3167 39.2212C10.4167 43.3734 5.083 49.0514 5.083 52.8212C5.083 56.7652 10.8162 62.9659 23.4048 67.2712C35.1052 70.7818 47.2881 72.4156 59.5 72.1119C71.4697 72.326 83.4017 70.7064 94.8813 67.3094C107.95 62.9787 113.9 56.7694 113.9 52.8339C113.685 51.4836 113.192 50.1925 112.454 49.0419C111.715 47.8914 110.746 46.9063 109.608 46.1487C105.577 43.0345 101.03 40.6549 96.1732 39.1192C84.311 35.3978 71.931 33.593 59.5 33.7727Z" fill="#00D8FF"/>
<path d="M35.3598 105.827C33.3772 105.873 31.418 105.392 29.6818 104.433C23.5958 100.923 21.4878 90.7993 24.0421 77.348C26.8615 64.4762 31.741 52.144 38.4921 40.8278C44.8291 29.4774 52.9399 19.2131 62.5173 10.4233C66.7395 6.57747 71.6085 3.50849 76.8993 1.35801C78.8141 0.463564 80.9017 0 83.0151 0C85.1284 0 87.2161 0.463564 89.1308 1.35801C95.4591 5.00451 97.5543 16.1735 94.6006 30.5088C91.6977 42.6833 86.9448 54.3406 80.5076 65.074C74.394 76.2907 66.5386 86.4657 57.2346 95.2193C52.8604 99.2176 47.784 102.372 42.2618 104.523C40.0516 105.345 37.7178 105.786 35.3598 105.827ZM42.8951 43.3523C36.4558 54.1886 31.7792 65.9791 29.0401 78.283C26.6898 90.6718 28.9466 98.122 32.2276 100.018C35.6276 101.985 43.8811 100.12 53.9026 91.3645C62.7857 82.9795 70.2836 73.2395 76.1173 62.507C82.2838 52.2455 86.843 41.1004 89.6366 29.459C92.4161 15.9653 90.0148 7.70326 86.6063 5.73976C85.3286 5.25104 83.9636 5.03234 82.5972 5.09744C81.2308 5.16254 79.8927 5.51003 78.6673 6.11801C73.9572 8.06221 69.6267 10.8216 65.8748 14.2695C56.7251 22.6896 48.9777 32.516 42.9248 43.3778L42.8951 43.3523Z" fill="#00D8FF"/>
<path d="M83.6271 105.882C77.8684 105.882 70.5541 102.397 62.9381 95.8482C53.194 86.9774 44.9463 76.5913 38.5134 65.091C31.8456 53.9312 27.0047 41.7773 24.1739 29.0892C22.9491 23.5065 22.7217 17.7512 23.5024 12.0892C23.6859 9.98957 24.3265 7.95547 25.3793 6.12958C26.4322 4.30369 27.8716 2.73021 29.5969 1.51949C35.9166 -2.13976 46.6394 1.62149 57.5831 11.337C66.6806 19.9313 74.4063 29.87 80.4906 40.8065C87.1549 51.7055 92.0466 63.5934 94.9831 76.0262C96.2629 81.8135 96.4603 87.7876 95.5654 93.6467C95.3533 95.8077 94.676 97.8971 93.5799 99.7715C92.4839 101.646 90.9951 103.261 89.2159 104.505C87.5073 105.45 85.579 105.925 83.6271 105.882ZM42.9121 62.5325C49.0838 73.5228 56.9623 83.4628 66.2531 91.9807C75.8114 100.204 83.3934 101.972 86.6531 100.056C90.0531 98.0795 92.5606 90.013 89.9766 76.9612C87.1464 65.0905 82.4544 53.7427 76.0749 43.3395C70.2687 32.8723 62.8945 23.3554 54.2086 15.1195C43.9066 5.97349 35.5511 3.92924 32.1469 5.90124C31.0864 6.76401 30.2161 7.83701 29.5907 9.05267C28.9653 10.2683 28.5984 11.6003 28.5131 12.9647C27.8379 18.0141 28.0581 23.143 29.1634 28.116C31.8871 40.2496 36.5298 51.8707 42.9164 62.541L42.9121 62.5325Z" fill="#00D8FF"/>
</svg>
