<svg width="1470" height="882" viewBox="0 0 1470 882" fill="none" xmlns="http://www.w3.org/2000/svg">
<path d="M734.979 0C538.983 0 416.489 97.9985 367.496 294.009C440.999 195.997 526.756 159.246 624.754 183.756C680.665 197.72 720.626 238.306 764.866 283.199C836.923 356.34 920.332 441 1102.5 441C1298.5 441 1420.99 343.002 1470 146.991C1396.5 245.003 1310.74 281.754 1212.74 257.244C1156.83 243.28 1116.87 202.694 1072.63 157.801C1000.56 84.6597 917.164 0 734.979 0ZM367.496 441C171.5 441 49.006 538.998 0 735.009C73.5021 636.997 159.245 600.246 257.243 624.756C313.169 638.748 353.116 679.306 397.356 724.199C469.413 797.34 552.836 882 734.993 882C931.003 882 1053.5 784.002 1102.5 587.991C1029 686.003 943.244 722.754 845.246 698.244C789.334 684.28 749.374 643.694 705.134 598.815C633.077 525.66 549.668 441 367.496 441Z" fill="#38BDF8"/>
</svg>
