<svg width="104" height="92" viewBox="0 0 104 92" fill="none" xmlns="http://www.w3.org/2000/svg">
<mask id="mask0_537_353" style="mask-type:alpha" maskUnits="userSpaceOnUse" x="0" y="0" width="104" height="92">
<rect width="104" height="92" fill="#D9D9D9"/>
</mask>
<g mask="url(#mask0_537_353)">
<path fill-rule="evenodd" clip-rule="evenodd" d="M160.83 71.2247L150.514 51.4304L139.963 71.2247H128.616L144.704 45.6779L130.226 20.2884H141.729L151.123 39.5781L161.301 20.2884H171.823L156.953 45.5207L172.059 71.2247H160.83ZM197.616 71.2247V65.681H197.459C194.658 70.0321 190.693 72.2076 185.563 72.2076C181.611 72.2076 178.496 71.133 176.219 68.9837C173.942 66.8081 172.803 63.8986 172.803 60.2552C172.803 52.4442 177.187 48.0013 185.955 46.9266L197.694 45.3146C197.694 39.8365 195.155 37.0974 190.078 37.0973C185.236 37.0974 180.786 38.5914 176.729 41.5795V33.5588C178.247 32.6414 180.42 31.8158 183.246 31.0818C186.099 30.3479 188.691 29.9809 191.02 29.9809C201.385 29.9809 206.567 35.2233 206.567 45.7078V71.2247H197.616ZM189.018 52.7849C186.322 53.1257 184.424 53.7941 183.325 54.7901C182.252 55.7599 181.715 57.2671 181.715 59.3116C181.715 60.9891 182.33 62.3653 183.561 63.4399C184.791 64.4884 186.4 65.0126 188.389 65.0126C191.085 65.0126 193.31 64.0821 195.064 62.2211C196.817 60.36 197.694 58.0403 197.694 55.2619V51.6447L189.018 52.7849ZM264.452 71.2247V48.4993C264.452 44.7511 263.863 41.9727 262.686 40.1641C261.534 38.3293 259.466 37.4119 256.482 37.4119C254.1 37.4119 252.098 38.5128 250.476 40.7145C248.853 42.8901 248.041 45.5244 248.041 48.6173V71.2247H238.972V47.713C238.972 40.8456 236.342 37.4119 231.081 37.4119C228.621 37.4119 226.592 38.4473 224.995 40.5179C223.425 42.5887 222.64 45.2884 222.64 48.6173V71.2247H213.571V30.9638H222.64V37.176H222.797C225.702 32.3793 229.942 29.9809 235.517 29.9809C238.187 29.9809 240.543 30.6887 242.584 32.104C244.652 33.4933 246.105 35.4198 246.942 37.8837C250.005 32.6152 254.506 29.9809 260.448 29.9809C269.19 29.9809 273.561 35.433 273.561 46.3369V71.2247H264.452ZM303.711 71.2247V65.681H303.554C300.753 70.0321 296.788 72.2076 291.658 72.2076C287.706 72.2076 284.591 71.133 282.314 68.9837C280.037 66.8081 278.898 63.8986 278.898 60.2552C278.898 52.4442 283.283 48.0013 292.051 46.9266L303.79 45.3146C303.79 39.8365 301.251 37.0974 296.173 37.0973C291.331 37.0974 286.881 38.5914 282.824 41.5795V33.5588C284.343 32.6414 286.515 31.8158 289.342 31.0818C292.195 30.3479 294.786 29.9809 297.115 29.9809C307.48 29.9809 312.662 35.2233 312.662 45.7078V71.2247H303.711ZM295.113 52.7849C292.417 53.1257 290.52 53.7941 289.42 54.7901C288.347 55.7599 287.811 57.2671 287.811 59.3116C287.811 60.9891 288.426 62.3653 289.656 63.4399C290.886 64.4884 292.496 65.0126 294.485 65.0126C297.181 65.0126 299.405 64.0821 301.159 62.2211C302.913 60.36 303.79 58.0403 303.79 55.2619V51.6447L295.113 52.7849ZM343.041 39.8102C341.55 38.8928 339.796 38.4342 337.781 38.4341C335.163 38.4342 333.03 39.5613 331.381 41.8154C329.758 44.0696 328.947 47.0053 328.947 50.6225V71.2247H319.878V30.9638H328.947V38.788H329.104C331.041 33.1001 334.47 30.2562 339.39 30.2561C340.987 30.2562 342.204 30.4396 343.042 30.8066L343.041 39.8102ZM352.07 21.9602C350.526 21.9602 349.217 21.4622 348.144 20.4661C347.071 19.444 346.534 18.1989 346.534 16.731C346.534 15.2108 347.071 13.9395 348.144 12.9172C349.217 11.895 350.526 11.3839 352.07 11.3838C353.64 11.3839 354.962 11.9081 356.035 12.9565C357.108 13.9788 357.645 15.237 357.645 16.731C357.645 18.1989 357.108 19.444 356.035 20.4661C354.962 21.4622 353.64 21.9602 352.07 21.9602ZM347.437 71.2247V30.9638H356.506V71.2247H347.437ZM390.782 71.2247V48.6173C390.782 41.147 388.1 37.4119 382.734 37.4119C380.038 37.4119 377.774 38.4473 375.942 40.5179C374.136 42.5625 373.233 45.1705 373.233 48.3421V71.2247H364.164V30.9638H373.233V37.4119H373.39C376.322 32.4579 380.666 29.9809 386.425 29.9809C395.376 29.9809 399.852 35.4853 399.852 46.4942V71.2247H390.782ZM30.4311 0C27.6763 0.0058575 24.9797 1.57379 23.5929 3.96573L2.02389 41.5343C0.658703 43.9326 0.658703 47.0674 2.02389 49.4657L23.5929 87.0343C24.9798 89.4262 27.6763 90.9946 30.4311 91H73.5689C76.3237 90.9941 79.0202 89.4262 80.4072 87.0343L101.976 49.4657C103.341 47.0674 103.341 43.9326 101.976 41.5343L80.4072 3.96573C79.0202 1.57379 76.3237 0.0054182 73.5689 0H30.4311ZM30.8226 21.978C30.8819 21.9722 30.944 21.9722 31.0034 21.978H38.4441C38.7734 21.9849 39.0929 22.1757 39.2574 22.4624L51.8795 45.0156C51.9431 45.1271 51.984 45.2514 51.9995 45.3789C52.0151 45.2514 52.056 45.1271 52.1195 45.0156L64.7115 22.4624C64.8812 22.167 65.2156 21.9751 65.5549 21.978H72.9955C73.6544 21.9839 74.1478 22.816 73.839 23.4009L61.5183 45.5L73.839 67.5689C74.177 68.1571 73.6714 69.0278 72.9955 69.022H65.5549C65.2097 69.019 64.8732 68.8138 64.7115 68.5073L52.1195 45.9541C52.056 45.8426 52.0151 45.7183 51.9995 45.5908C51.984 45.7184 51.9431 45.8426 51.8795 45.9541L39.2574 68.5073C39.1004 68.8052 38.7792 69.0084 38.4441 69.022H31.0034C30.3275 69.0278 29.8221 68.1571 30.16 67.5689L42.4808 45.5L30.16 23.4009C29.8647 22.8673 30.225 22.0919 30.8226 21.978Z" fill="#3498DB"/>
</g>
</svg>
